<svg xmlns="http://www.w3.org/2000/svg" width="48" height="48" style="shape-rendering:geometricPrecision;text-rendering:geometricPrecision;image-rendering:optimizeQuality;fill-rule:evenodd;clip-rule:evenodd" viewBox="0 0 48 48"><defs><style>.fil0{fill:#FFFFFF}</style></defs><g id="Layer_x0020_1"><g id="_290583224"><path id="_290583920" class="fil0" d="M11.569 26.968zm1.35 -5.05c0.324 -2.943 0.444 -6.394 0.477 -8.453 0.006 -0.41 0.009 -0.818 0.009 -1.173 0 -0.685 0.075 -1.356 0.143 -1.958 0.091 -0.81 0.167 -1.479 0.017 -1.773 -0.129 -0.254 -0.619 -0.181 -1.851 0.446 -0.459 0.234 -1.461 0.885 -2.287 1.42 -0.467 0.303 -0.879 0.57 -1.098 0.702 -1.017 0.615 -1.841 1.41 -2.169 2.517 -0.335 1.128 -0.171 2.606 0.79 4.584 0.399 0.819 0.868 1.512 1.314 2.169 0.692 1.018 1.331 1.959 1.611 3.18 0.15 0.651 0.512 1.768 0.962 2.573 0.255 0.456 0.513 0.794 0.718 0.816H11.574c0.477 0 0.849 -1.426 1.135 -3.392a0.375 0.375 0 0 1 0.019 -0.141c0.068 -0.48 0.131 -0.99 0.189 -1.518z"/><path id="_290583728" class="fil0" d="M36.43 26.968zm5.412 -13.32c-0.329 -1.107 -1.151 -1.902 -2.169 -2.517 -0.219 -0.132 -0.631 -0.401 -1.098 -0.702 -0.827 -0.535 -1.829 -1.187 -2.287 -1.42 -1.23 -0.627 -1.722 -0.699 -1.851 -0.446 -0.15 0.294 -0.075 0.963 0.017 1.773 0.068 0.6 0.143 1.27 0.143 1.958 0 0.355 0.003 0.765 0.009 1.173 0.033 2.058 0.152 5.51 0.477 8.453 0.058 0.528 0.121 1.038 0.189 1.518a0.375 0.375 0 0 1 0.019 0.141c0.286 1.965 0.658 3.392 1.135 3.392H36.446c0.206 -0.022 0.464 -0.36 0.718 -0.816 0.45 -0.804 0.812 -1.921 0.962 -2.573 0.28 -1.221 0.918 -2.162 1.611 -3.18 0.447 -0.657 0.916 -1.349 1.314 -2.169 0.962 -1.978 1.125 -3.456 0.79 -4.584z"/><path id="_290583872" class="fil0" d="M33.654 9.915c-1.927 -1.686 -5.781 -2.527 -9.649 -2.527v-0.002c-3.875 0 -7.734 0.844 -9.66 2.529l-0.054 0.501c-0.065 0.576 -0.137 1.218 -0.137 1.875 0 0.254 -0.003 0.645 -0.012 1.185 -0.033 2.08 -0.153 5.565 -0.48 8.523 -0.057 0.519 -0.121 1.023 -0.197 1.501 0.283 0.67 0.581 1.297 0.876 1.924 1.242 2.629 2.494 5.279 2.494 9.955 0 0.924 0.576 1.716 1.389 2.155 0.352 0.191 0.747 0.314 1.159 0.354a0.381 0.381 0 0 1 0.046 -0.003c0.035 0 0.069 0.005 0.101 0.013l0.044 0.002c0.482 0.017 0.983 -0.081 1.46 -0.321 1.128 -0.566 2.138 -1.917 2.54 -4.401 -1.65 -0.288 -2.984 -2.189 -2.984 -3.423 0 -1.923 1.703 -1.431 3.276 -1.435 1.659 -0.006 3.538 -0.541 3.538 1.435 0 1.234 -1.333 3.135 -2.984 3.423 0.402 2.484 1.411 3.837 2.54 4.401 0.477 0.238 0.977 0.338 1.46 0.321l0.044 -0.002a0.375 0.375 0 0 1 0.101 -0.013l0.046 0.003c0.411 -0.041 0.807 -0.165 1.159 -0.354 0.815 -0.44 1.389 -1.232 1.389 -2.155 0 -4.677 1.252 -7.326 2.494 -9.954 0.297 -0.627 0.593 -1.254 0.876 -1.924 -0.074 -0.48 -0.138 -0.983 -0.197 -1.501 -0.327 -2.958 -0.446 -6.442 -0.48 -8.523 -0.009 -0.54 -0.012 -0.931 -0.012 -1.185 0 -0.657 -0.072 -1.299 -0.137 -1.875a49.866 49.866 0 0 1 -0.054 -0.501zm-5.649 8.67c0 -0.913 0.504 -2.361 1.417 -2.361s2.361 0.74 2.361 1.653c0 0.913 -1.449 1.653 -2.361 1.653 -0.913 0 -1.417 -0.032 -1.417 -0.945zm-9.428 -2.361c0.913 0 1.417 1.449 1.417 2.361 0 0.913 -0.504 0.945 -1.417 0.945s-2.361 -0.74 -2.361 -1.653c0 -0.913 1.449 -1.653 2.361 -1.653z"/><path id="_290583368" class="fil0" d="M26.628 38.25c-1.079 -0.541 -2.061 -1.66 -2.628 -3.558 -0.567 1.897 -1.549 3.017 -2.628 3.558a3.759 3.759 0 0 1 -1.504 0.398c0.143 0.464 0.535 0.886 1.095 1.221 0.771 0.461 1.844 0.744 3.037 0.744 1.194 0 2.266 -0.285 3.037 -0.744 0.561 -0.335 0.954 -0.758 1.095 -1.221a3.759 3.759 0 0 1 -1.504 -0.398z"/></g></g><path style="fill:none" d="M0 0h48v48H0z"/></svg>